<?xml version="1.0" encoding="utf-8"?>
<!-- Generator: Adobe Illustrator 26.1.0, SVG Export Plug-In . SVG Version: 6.00 Build 0)  -->
<svg version="1.1" id="Layer_1" xmlns="http://www.w3.org/2000/svg" xmlns:xlink="http://www.w3.org/1999/xlink" x="0px" y="0px"
	 viewBox="0 0 75 75" style="enable-background:new 0 0 75 75;" xml:space="preserve">
<style type="text/css">
	.st0{fill:url(#SVGID_1_);}
</style>
<g>
	<g>
		<linearGradient id="SVGID_1_" gradientUnits="userSpaceOnUse" x1="6.568" y1="35.9974" x2="70.6976" y2="35.9974">
			<stop  offset="0" style="stop-color:#C0E6F0"/>
			<stop  offset="1" style="stop-color:#DBD4EA"/>
		</linearGradient>
		<path class="st0" d="M29.11,19.62l-2.14,1.23l2.14,1.23c0.24,0.14,0.32,0.44,0.18,0.68c-0.09,0.16-0.26,0.25-0.43,0.25
			c-0.08,0-0.17-0.02-0.25-0.07l-2.13-1.23v2.47c0,0.27-0.22,0.5-0.5,0.5c-0.27,0-0.5-0.22-0.5-0.5v-2.47l-2.13,1.23
			c-0.08,0.05-0.16,0.07-0.25,0.07c-0.17,0-0.34-0.09-0.43-0.25c-0.14-0.24-0.06-0.54,0.18-0.68l2.14-1.23l-2.14-1.23
			c-0.24-0.14-0.32-0.44-0.18-0.68c0.14-0.24,0.44-0.32,0.68-0.18l2.13,1.23v-2.47c0-0.27,0.22-0.5,0.5-0.5c0.27,0,0.5,0.22,0.5,0.5
			v2.47l2.13-1.23c0.24-0.14,0.54-0.06,0.68,0.18C29.43,19.18,29.35,19.48,29.11,19.62z M41.14,18.94
			c-0.14-0.24-0.44-0.32-0.68-0.18l-2.13,1.23v-2.47c0-0.27-0.22-0.5-0.5-0.5c-0.27,0-0.5,0.22-0.5,0.5v2.47l-2.13-1.23
			c-0.24-0.14-0.54-0.06-0.68,0.18c-0.14,0.24-0.06,0.54,0.18,0.68l2.14,1.23l-2.14,1.23c-0.24,0.14-0.32,0.44-0.18,0.68
			c0.09,0.16,0.26,0.25,0.43,0.25c0.08,0,0.17-0.02,0.25-0.07l2.13-1.23v2.47c0,0.27,0.22,0.5,0.5,0.5c0.27,0,0.5-0.22,0.5-0.5
			v-2.47l2.13,1.23c0.08,0.05,0.16,0.07,0.25,0.07c0.17,0,0.34-0.09,0.43-0.25c0.14-0.24,0.06-0.54-0.18-0.68l-2.14-1.23l2.14-1.23
			C41.2,19.48,41.28,19.18,41.14,18.94z M53,18.94c-0.14-0.24-0.44-0.32-0.68-0.18l-2.13,1.23v-2.47c0-0.27-0.22-0.5-0.5-0.5
			c-0.27,0-0.5,0.22-0.5,0.5v2.47l-2.13-1.23c-0.24-0.14-0.54-0.06-0.68,0.18c-0.14,0.24-0.06,0.54,0.18,0.68l2.14,1.23l-2.14,1.23
			c-0.24,0.14-0.32,0.44-0.18,0.68c0.09,0.16,0.26,0.25,0.43,0.25c0.08,0,0.17-0.02,0.25-0.07l2.13-1.23v2.47
			c0,0.27,0.22,0.5,0.5,0.5c0.27,0,0.5-0.22,0.5-0.5v-2.47l2.13,1.23c0.08,0.05,0.16,0.07,0.25,0.07c0.17,0,0.34-0.09,0.43-0.25
			c0.14-0.24,0.06-0.54-0.18-0.68l-2.14-1.23l2.14-1.23C53.05,19.48,53.13,19.18,53,18.94z M64.85,18.94
			c-0.14-0.24-0.44-0.32-0.68-0.18l-2.13,1.23v-2.47c0-0.27-0.22-0.5-0.5-0.5c-0.27,0-0.5,0.22-0.5,0.5v2.47l-2.13-1.23
			c-0.24-0.14-0.54-0.06-0.68,0.18c-0.14,0.24-0.06,0.54,0.18,0.68l2.14,1.23l-2.14,1.23c-0.24,0.14-0.32,0.44-0.18,0.68
			c0.09,0.16,0.26,0.25,0.43,0.25c0.08,0,0.17-0.02,0.25-0.07l2.13-1.23v2.47c0,0.27,0.22,0.5,0.5,0.5c0.27,0,0.5-0.22,0.5-0.5
			v-2.47l2.13,1.23c0.08,0.05,0.16,0.07,0.25,0.07c0.17,0,0.34-0.09,0.43-0.25c0.14-0.24,0.06-0.54-0.18-0.68l-2.14-1.23l2.14-1.23
			C64.91,19.48,64.99,19.18,64.85,18.94z M60.16,31.52h-3.17l-9.9,6.56c-0.08,0.05-0.18,0.08-0.27,0.08c-0.08,0-0.16-0.02-0.24-0.06
			c-0.16-0.09-0.26-0.25-0.26-0.44v-6.14H27.42c-5.77,0-10.46-4.59-10.58-10.28h-4c-2.91,0-5.28,2.37-5.28,5.28v17.9
			c0.01,0,0.01,0,0.02,0h43.62c0.27,0,0.5,0.22,0.5,0.5c0,0.27-0.22,0.5-0.5,0.5H7.58c-0.01,0-0.01,0-0.02,0v5.94
			c0.01,0,0.01,0,0.02,0h56.34V33c0-0.27,0.22-0.5,0.5-0.5c0.27,0,0.5,0.22,0.5,0.5v22.54c0,3.46-2.81,6.27-6.27,6.27H12.84
			c-3.46,0-6.27-2.81-6.27-6.27V26.51c0-3.46,2.81-6.27,6.27-6.27h4.02c0.27-5.56,4.88-10.01,10.51-10.01l32.74-0.04h0
			c5.84,0,10.58,4.73,10.58,10.54v0.22C70.7,26.78,65.97,31.52,60.16,31.52z M7.56,52.33v3.21c0,2.91,2.37,5.28,5.28,5.28h45.81
			c2.91,0,5.28-2.37,5.28-5.28v-3.21H7.58C7.57,52.33,7.57,52.33,7.56,52.33z M69.7,20.95v-0.22c0-5.26-4.3-9.55-9.59-9.55
			l-32.74,0.04c-5.26,0-9.55,4.28-9.55,9.55l0,0.25c0,5.24,4.31,9.5,9.6,9.5h19.39c0.27,0,0.5,0.22,0.5,0.5v5.72l9.26-6.13
			c0.08-0.05,0.18-0.08,0.27-0.08h3.32C65.42,30.52,69.7,26.23,69.7,20.95z M55.59,44.41c-0.27,0-0.5,0.22-0.5,0.5
			c0,0.27,0.22,0.5,0.5,0.5h5.13c0.27,0,0.5-0.22,0.5-0.5c0-0.27-0.22-0.5-0.5-0.5H55.59z"/>
	</g>
</g>
</svg>
