<?xml version="1.0" encoding="utf-8"?>
<!-- Generator: Adobe Illustrator 26.1.0, SVG Export Plug-In . SVG Version: 6.00 Build 0)  -->
<svg version="1.1" id="Layer_1" xmlns="http://www.w3.org/2000/svg" xmlns:xlink="http://www.w3.org/1999/xlink" x="0px" y="0px"
	 viewBox="0 0 75 75" style="enable-background:new 0 0 75 75;" xml:space="preserve">
<style type="text/css">
	.st0{fill:url(#SVGID_1_);}
</style>
<g>
	<linearGradient id="SVGID_1_" gradientUnits="userSpaceOnUse" x1="49.0969" y1="63.5771" x2="16.1616" y2="6.5314">
		<stop  offset="0" style="stop-color:#C0E6F0"/>
		<stop  offset="1" style="stop-color:#DBD4EA"/>
	</linearGradient>
	<path class="st0" d="M6.69,43.44c0,1.95,0.76,3.77,2.14,5.15c1.38,1.38,3.21,2.14,5.16,2.14h31.14c3.49,0,6.33,2.84,6.33,6.33
		c0,1.69-0.66,3.27-1.85,4.47c-1.19,1.19-2.78,1.85-4.47,1.85H24.72c-0.24-1.76-1.73-3.12-3.55-3.12c-1.99,0-3.6,1.62-3.6,3.6
		c0,1.99,1.62,3.6,3.6,3.6c1.82,0,3.32-1.36,3.55-3.12h20.41c1.96,0,3.79-0.76,5.16-2.14c1.38-1.38,2.14-3.21,2.14-5.15
		c0-4.02-3.27-7.29-7.29-7.29H13.98c-1.69,0-3.28-0.66-4.48-1.85c-1.19-1.19-1.85-2.78-1.85-4.47c0-3.49,2.84-6.33,6.33-6.33h19.2
		c0.6,0.99,1.3,1.93,2.14,2.77c4.59,4.59,11.61,5.49,17.2,2.25l11.04,11.04c0.46,0.46,1.06,0.71,1.7,0.71s1.25-0.25,1.7-0.71
		l1.78-1.78c0.94-0.94,0.94-2.47,0-3.41L57.72,36.93c3.24-5.59,2.34-12.61-2.25-17.2c-5.55-5.55-14.59-5.55-20.14,0
		c-0.85,0.85-1.56,1.79-2.16,2.8H13.98c-1.69,0-3.28-0.66-4.48-1.85c-1.19-1.19-1.85-2.78-1.85-4.48c0-3.48,2.84-6.32,6.33-6.32
		h15.45c0.24,1.76,1.73,3.12,3.55,3.12c1.99,0,3.6-1.62,3.6-3.6c0-1.99-1.62-3.6-3.6-3.6c-1.82,0-3.32,1.36-3.55,3.12H13.98
		c-4.02,0-7.29,3.27-7.29,7.29c0,1.95,0.76,3.78,2.14,5.16c1.38,1.38,3.21,2.14,5.16,2.14h18.65c-0.96,1.94-1.48,4.08-1.48,6.31
		c0,2.24,0.53,4.39,1.5,6.34H13.98C9.96,36.14,6.69,39.42,6.69,43.44z M21.16,66.49c-1.45,0-2.64-1.18-2.64-2.64
		c0-1.45,1.18-2.64,2.64-2.64c1.45,0,2.64,1.18,2.64,2.64C23.8,65.31,22.62,66.49,21.16,66.49z M32.98,6.76
		c1.45,0,2.64,1.18,2.64,2.64s-1.18,2.64-2.64,2.64c-1.45,0-2.64-1.18-2.64-2.64S31.53,6.76,32.98,6.76z M36.01,20.41
		c2.51-2.51,5.84-3.89,9.39-3.89s6.88,1.38,9.39,3.89c4.36,4.36,5.15,11.08,1.91,16.34c-0.12,0.19-0.09,0.44,0.07,0.59l11.3,11.3
		c0.56,0.56,0.56,1.48,0,2.04l-1.78,1.78c-0.55,0.55-1.5,0.55-2.04,0l-11.3-11.3c-0.09-0.09-0.22-0.14-0.34-0.14
		c-0.09,0-0.17,0.02-0.25,0.07c-5.26,3.24-11.97,2.45-16.34-1.91c-2.51-2.51-3.89-5.84-3.89-9.39
		C32.12,26.26,33.5,22.92,36.01,20.41z M45.4,40.18c2.66,0,5.32-1.01,7.34-3.04c1.96-1.96,3.04-4.57,3.04-7.34
		c0-2.77-1.08-5.38-3.04-7.34c-4.05-4.05-10.64-4.05-14.68,0c-4.05,4.05-4.05,10.63,0,14.68C40.08,39.17,42.74,40.18,45.4,40.18z
		 M38.74,23.14c1.84-1.84,4.25-2.75,6.66-2.75c2.41,0,4.82,0.92,6.66,2.75c1.78,1.78,2.76,4.14,2.76,6.66
		c0,2.52-0.98,4.88-2.76,6.66c-3.67,3.67-9.65,3.67-13.32,0C35.07,32.79,35.07,26.82,38.74,23.14z M41.01,29.63
		c-0.19-0.19-0.19-0.49,0-0.68c0.19-0.19,0.49-0.19,0.68,0l2.88,2.88l4.52-4.52c0.19-0.19,0.49-0.19,0.68,0
		c0.19,0.19,0.19,0.49,0,0.68l-4.86,4.86c-0.09,0.09-0.22,0.14-0.34,0.14c-0.12,0-0.25-0.05-0.34-0.14L41.01,29.63z"/>
</g>
</svg>
