<?xml version="1.0" encoding="utf-8"?>
<!-- Generator: Adobe Illustrator 26.1.0, SVG Export Plug-In . SVG Version: 6.00 Build 0)  -->
<svg version="1.1" id="Layer_1" xmlns="http://www.w3.org/2000/svg" xmlns:xlink="http://www.w3.org/1999/xlink" x="0px" y="0px"
	 viewBox="0 0 75 75" style="enable-background:new 0 0 75 75;" xml:space="preserve">
<style type="text/css">
	.st0{fill:url(#SVGID_1_);}
</style>
<g>
	<linearGradient id="SVGID_1_" gradientUnits="userSpaceOnUse" x1="-9.2378" y1="36.6276" x2="47.8455" y2="36.6276">
		<stop  offset="0" style="stop-color:#C0E6F0"/>
		<stop  offset="1" style="stop-color:#DBD4EA"/>
	</linearGradient>
	<path class="st0" d="M20.53,45.64l7.1,7.92c0.9,1.01,2.56,0.69,3.02-0.58l8.7-23.71l7.16,14.61c0.52,1.07,2.05,1.07,2.57,0
		l16.44-33.78c0.25-0.51,0.04-1.12-0.47-1.37l0,0c-0.51-0.26-1.14-0.04-1.39,0.47L47.82,41.87l-7.08-14.44
		c-0.63-1.28-2.48-1.18-2.97,0.15l-8.91,24.27l-6.73-7.51c-0.99-1.11-2.79-0.89-3.48,0.43l-7.97,15.18V9.12
		c0-0.57-0.46-1.03-1.03-1.03l0,0c-0.57,0-1.03,0.46-1.03,1.03v53.73c0,1.28,1.04,2.33,2.33,2.33h53.73c0.57,0,1.03-0.46,1.03-1.03
		l0,0c0-0.57-0.46-1.03-1.03-1.03H11.35L20.53,45.64z"/>
</g>
</svg>
