<?xml version="1.0" encoding="utf-8"?>
<!-- Generator: Adobe Illustrator 26.1.0, SVG Export Plug-In . SVG Version: 6.00 Build 0)  -->
<svg version="1.1" id="Layer_1" xmlns="http://www.w3.org/2000/svg" xmlns:xlink="http://www.w3.org/1999/xlink" x="0px" y="0px"
	 viewBox="0 0 54.72 58.73" style="enable-background:new 0 0 54.72 58.73;" xml:space="preserve">
<style type="text/css">
	.st0{fill:url(#SVGID_1_);}
</style>
<g>
	<linearGradient id="SVGID_1_" gradientUnits="userSpaceOnUse" x1="45.1025" y1="63.4286" x2="7.8459" y2="-1.1018">
		<stop  offset="0" style="stop-color:#C0E6F0"/>
		<stop  offset="1" style="stop-color:#DBD4EA"/>
	</linearGradient>
	<path class="st0" d="M7.27,23.85c0-0.28,0.22-0.5,0.5-0.5h32.78c0.28,0,0.5,0.22,0.5,0.5c0,0.28-0.22,0.5-0.5,0.5H7.77
		C7.49,24.35,7.27,24.13,7.27,23.85z M7.27,16.81c0-0.28,0.22-0.5,0.5-0.5h32.78c0.28,0,0.5,0.22,0.5,0.5c0,0.28-0.22,0.5-0.5,0.5
		H7.77C7.49,17.31,7.27,17.09,7.27,16.81z M7.27,9.78c0-0.28,0.22-0.5,0.5-0.5h32.78c0.28,0,0.5,0.22,0.5,0.5
		c0,0.28-0.22,0.5-0.5,0.5H7.77C7.49,10.28,7.27,10.05,7.27,9.78z M7.27,30.75c0-0.28,0.22-0.5,0.5-0.5h17.39
		c0.28,0,0.5,0.22,0.5,0.5c0,0.28-0.22,0.5-0.5,0.5H7.77C7.49,31.25,7.27,31.03,7.27,30.75z M21.32,37.63c0,0.28-0.22,0.5-0.5,0.5
		H7.77c-0.28,0-0.5-0.22-0.5-0.5c0-0.28,0.22-0.5,0.5-0.5h13.05C21.09,37.13,21.32,37.36,21.32,37.63z M20.65,44.53
		c0,0.28-0.22,0.5-0.5,0.5H7.77c-0.28,0-0.5-0.22-0.5-0.5c0-0.28,0.22-0.5,0.5-0.5h12.39C20.43,44.03,20.65,44.26,20.65,44.53z
		 M40.22,0H8.11C3.64,0,0,3.64,0,8.11v38.1c0,4.46,3.64,8.09,8.11,8.09h21.97c2.46,1.96,5.57,3.15,8.96,3.15
		c3.25,0,6.25-1.1,8.66-2.92l3.62,3.62c0.39,0.37,0.89,0.58,1.41,0.58c0.52,0,1.02-0.21,1.41-0.59c0.38-0.38,0.59-0.89,0.59-1.42
		c0-0.53-0.21-1.03-0.59-1.4l-3.61-3.61c1.83-2.41,2.92-5.41,2.92-8.66c0-4.41-1.99-8.35-5.12-11V8.11C48.32,3.64,44.69,0,40.22,0z
		 M8.11,53.3C4.19,53.3,1,50.12,1,46.21V8.11C1,4.19,4.19,1,8.11,1h32.12c3.91,0,7.09,3.19,7.09,7.11v23.17
		c-2.35-1.66-5.2-2.64-8.28-2.64c-7.94,0-14.41,6.46-14.41,14.4c0,4.01,1.65,7.64,4.31,10.26H8.11z M53.43,56.03
		c0.19,0.18,0.29,0.43,0.29,0.69c0,0.27-0.1,0.52-0.29,0.71c-0.4,0.39-1.03,0.38-1.42,0.01l-3.54-3.54c0.5-0.44,0.97-0.91,1.41-1.41
		L53.43,56.03z M52.44,43.04c0,7.39-6.01,13.41-13.41,13.41c-7.39,0-13.41-6.01-13.41-13.41c0-7.39,6.01-13.41,13.41-13.41
		C46.43,29.64,52.44,35.65,52.44,43.04z M38.37,45.28l5.87-5.87c0.2-0.2,0.51-0.2,0.71,0s0.2,0.51,0,0.71l-6.22,6.22
		c-0.1,0.1-0.23,0.15-0.35,0.15c-0.13,0-0.26-0.05-0.35-0.15l-3.36-3.36c-0.2-0.2-0.2-0.51,0-0.71c0.2-0.2,0.51-0.2,0.71,0
		L38.37,45.28z"/>
</g>
</svg>
