<?xml version="1.0" encoding="utf-8"?>
<!-- Generator: Adobe Illustrator 22.1.0, SVG Export Plug-In . SVG Version: 6.00 Build 0)  -->
<svg version="1.1" id="Layer_1" xmlns="http://www.w3.org/2000/svg" xmlns:xlink="http://www.w3.org/1999/xlink" x="0px" y="0px"
	 viewBox="0 0 27.4 38.4" style="enable-background:new 0 0 27.4 38.4;" xml:space="preserve">
<style type="text/css">
	.st0{fill:#FFFFFF;}
</style>
<path class="st0" d="M27.4,13.7C27.4,6.1,21.2,0,13.7,0C6.1,0,0,6.1,0,13.7c0,3,1,5.7,2.6,8h0l11.1,16.7l11.3-17c0,0,0-0.1,0.1-0.1
	l0.1-0.2l0,0C26.6,18.9,27.4,16.4,27.4,13.7 M13.7,19.2c-3.6,0-6.5-2.9-6.5-6.5c0-3.6,2.9-6.5,6.5-6.5c3.6,0,6.5,2.9,6.5,6.5
	C20.2,16.3,17.3,19.2,13.7,19.2"/>
</svg>
